<?xml version="1.0" encoding="UTF-8"?>
<svg id="Guidelines" xmlns="http://www.w3.org/2000/svg" viewBox="0 0 305.43 288.35">
  <defs>
    <style>
      .cls-1 {
        fill: #ffcc61;
      }
    </style>
  </defs>
  <path class="cls-1" d="M46.56,134.36C20.89,134.36,0,113.47,0,87.8s20.89-46.56,46.56-46.56,46.56,20.89,46.56,46.56-20.89,46.56-46.56,46.56ZM46.56,55.3c-17.92,0-32.5,14.58-32.5,32.5s14.58,32.5,32.5,32.5,32.5-14.58,32.5-32.5-14.58-32.5-32.5-32.5Z"/>
  <path class="cls-1" d="M46.56,247.4c-25.68,0-46.56-20.89-46.56-46.56s20.89-46.56,46.56-46.56,46.56,20.89,46.56,46.56-20.89,46.56-46.56,46.56ZM46.56,168.34c-17.92,0-32.5,14.58-32.5,32.5s14.58,32.5,32.5,32.5,32.5-14.58,32.5-32.5-14.58-32.5-32.5-32.5Z"/>
  <path class="cls-1" d="M244.04,82.78c-2.67,0-5.3.17-7.88.5v-21.72C236.15,27.56,208.59,0,174.59,0h0C140.6,0,113.04,27.56,113.04,61.56v165.24c0,34,27.56,61.56,61.56,61.56h0c34,0,61.56-27.56,61.56-61.56v-21.72c2.58.33,5.21.5,7.88.5,33.91,0,61.4-27.49,61.4-61.4s-27.49-61.4-61.4-61.4Z"/>
</svg>