<?xml version="1.0" encoding="UTF-8"?>
<svg id="Guidelines" xmlns="http://www.w3.org/2000/svg" viewBox="0 0 883.33 209.13">
  <defs>
    <style>
      .cls-1 {
        fill: #ffcc61;
      }

      .cls-2 {
        fill: #fff;
      }
    </style>
  </defs>
  <g>
    <path class="cls-2" d="M517.49,186.59h-27.88v-121.74c0-8.05-6.55-14.6-14.6-14.6h-40.87v-27.88h40.87c23.43,0,42.49,19.06,42.49,42.49v121.74Z"/>
    <rect class="cls-2" x="514.66" y="22.42" width="61.27" height="27.77"/>
    <path class="cls-2" d="M718.71,88.34h-61.65v27.88s55.29,0,55.28,0c0,.01-.72,14.01-14.66,27.95-18.4,18.39-46.47,21.35-67.98,8.88-.14-.08-.29-.16-.44-.25-.44-.26-.87-.54-1.31-.82-.38-.24-.77-.48-1.15-.73-.16-.1-.31-.22-.46-.32-2.9-1.98-5.65-4.24-8.19-6.77-10.28-10.28-15.74-23.58-16.39-37.07-.72-15.28,4.74-30.81,16.38-42.45,21.93-21.93,57.61-21.93,79.53,0l10.22-10.22,9.56-9.56c-15.89-15.9-37.03-24.65-59.51-24.65s-43.61,8.75-59.51,24.65c-16.41,16.41-24.62,37.97-24.61,59.53,0,21.55,8.2,43.09,24.6,59.5,2.93,2.93,6.04,5.59,9.27,8,.08.06.15.12.23.18.66.49,1.33.94,1.99,1.41.52.36,1.03.73,1.56,1.08.32.21.64.4.96.61,13.45,8.68,29.12,13.36,45.51,13.36,46.57,0,63.4-42.64,65.64-45.43v43.49h27.88v-65.48c0-18.09-14.67-32.76-32.76-32.76Z"/>
    <path class="cls-2" d="M824.88,186.59h-27.88v-121.74c0-8.05-6.55-14.6-14.6-14.6h-40.87v-27.88h40.87c23.43,0,42.49,19.06,42.49,42.49v121.74Z"/>
    <rect class="cls-2" x="822.05" y="22.42" width="61.27" height="27.77"/>
    <path class="cls-2" d="M442.33,124.33c-8.9,37.06-42.24,64.59-82.01,64.59-46.59,0-84.36-37.77-84.36-84.36s37.77-84.34,84.36-84.34c23.28,0,44.34,9.41,59.61,24.65l-19.73,19.73c-10.2-10.2-24.3-16.51-39.87-16.51-31.18,0-56.46,25.28-56.46,56.46s25.28,56.46,56.46,56.46c24.22,0,44.89-15.24,52.89-36.69h29.12Z"/>
  </g>
  <g>
    <path class="cls-1" d="M33.77,97.45C15.15,97.45,0,82.3,0,63.68S15.15,29.91,33.77,29.91s33.77,15.15,33.77,33.77-15.15,33.77-33.77,33.77ZM33.77,40.11c-13,0-23.57,10.57-23.57,23.57s10.57,23.57,23.57,23.57,23.57-10.57,23.57-23.57-10.57-23.57-23.57-23.57Z"/>
    <path class="cls-1" d="M33.77,179.43c-18.62,0-33.77-15.15-33.77-33.77s15.15-33.77,33.77-33.77,33.77,15.15,33.77,33.77-15.15,33.77-33.77,33.77ZM33.77,122.09c-13,0-23.57,10.57-23.57,23.57s10.57,23.57,23.57,23.57,23.57-10.57,23.57-23.57-10.57-23.57-23.57-23.57Z"/>
    <path class="cls-1" d="M176.99,60.04c-1.94,0-3.85.12-5.72.36v-15.75C171.28,19.99,151.29,0,126.63,0h0C101.97,0,81.98,19.99,81.98,44.65v119.84c0,24.66,19.99,44.65,44.65,44.65h0c24.66,0,44.65-19.99,44.65-44.65v-15.75c1.87.24,3.78.36,5.72.36,24.59,0,44.53-19.94,44.53-44.53s-19.94-44.53-44.53-44.53Z"/>
  </g>
</svg>